<mxfile host="65bd71144e">
    <diagram id="vA8y2eTUlRboXU0FeAt3" name="Page-1">
        <mxGraphModel dx="1646" dy="585" grid="1" gridSize="10" guides="1" tooltips="1" connect="1" arrows="1" fold="1" page="1" pageScale="1" pageWidth="827" pageHeight="1169" math="0" shadow="0">
            <root>
                <mxCell id="0"/>
                <mxCell id="1" parent="0"/>
                <mxCell id="2" value="SQL Database" style="aspect=fixed;html=1;points=[];align=center;image;fontSize=16;image=img/lib/azure2/databases/SQL_Server.svg;fontStyle=1" parent="1" vertex="1">
                    <mxGeometry x="-120" y="670" width="68" height="68" as="geometry"/>
                </mxCell>
                <mxCell id="28" style="edgeStyle=none;html=1;strokeWidth=3;" edge="1" parent="1">
                    <mxGeometry relative="1" as="geometry">
                        <mxPoint x="-140" y="650" as="targetPoint"/>
                        <mxPoint x="-266" y="570.88" as="sourcePoint"/>
                    </mxGeometry>
                </mxCell>
                <mxCell id="3" value="Database Migration Service" style="aspect=fixed;html=1;points=[];align=center;image;fontSize=16;image=img/lib/azure2/databases/Azure_Database_Migration_Services.svg;fontStyle=1" parent="1" vertex="1">
                    <mxGeometry x="-330" y="460" width="64" height="69" as="geometry"/>
                </mxCell>
                <mxCell id="24" style="edgeStyle=none;html=1;fontSize=16;sourcePerimeterSpacing=30;targetPerimeterSpacing=30;strokeWidth=3;startArrow=classic;startFill=1;endArrow=none;endFill=0;" parent="1" edge="1">
                    <mxGeometry relative="1" as="geometry">
                        <mxPoint x="-330" y="570" as="targetPoint"/>
                        <mxPoint x="-450" y="650" as="sourcePoint"/>
                    </mxGeometry>
                </mxCell>
                <mxCell id="30" value="OnPremise&lt;br style=&quot;font-size: 16px;&quot;&gt;SQL Server 2012" style="outlineConnect=0;dashed=0;verticalLabelPosition=bottom;verticalAlign=top;align=center;html=1;shape=mxgraph.aws3.traditional_server;fillColor=#7D7C7C;gradientColor=none;fontSize=16;fontStyle=1" vertex="1" parent="1">
                    <mxGeometry x="-530" y="668" width="50" height="70" as="geometry"/>
                </mxCell>
            </root>
        </mxGraphModel>
    </diagram>
</mxfile>